<mxfile host="app.diagrams.net" modified="2023-06-29T23:29:39.390Z" agent="Mozilla/5.0 (Windows NT 10.0; Win64; x64) AppleWebKit/537.36 (KHTML, like Gecko) Chrome/114.0.0.0 Safari/537.36" etag="v-q7GBlWLx_rQBGeCADI" version="21.5.0" type="github">
  <diagram name="Page-1" id="ktiv0q7X8SxjECb7nsH5">
    <mxGraphModel dx="1050" dy="573" grid="1" gridSize="10" guides="1" tooltips="1" connect="1" arrows="1" fold="1" page="1" pageScale="1" pageWidth="827" pageHeight="1169" math="0" shadow="0">
      <root>
        <mxCell id="0" />
        <mxCell id="1" parent="0" />
        <mxCell id="4ImmQXMUIyr4NcNMXB_i-9" value="Pool" style="swimlane;childLayout=stackLayout;resizeParent=1;resizeParentMax=0;startSize=20;horizontal=0;horizontalStack=1;fontSize=8;" parent="1" vertex="1">
          <mxGeometry x="80" y="470" width="650" height="1240" as="geometry" />
        </mxCell>
        <mxCell id="4ImmQXMUIyr4NcNMXB_i-10" value="CLIENTE" style="swimlane;startSize=20;" parent="4ImmQXMUIyr4NcNMXB_i-9" vertex="1">
          <mxGeometry x="20" width="220" height="1240" as="geometry" />
        </mxCell>
        <mxCell id="4ImmQXMUIyr4NcNMXB_i-11" value="" style="ellipse;html=1;shape=startState;fillColor=#000000;strokeColor=#ff0000;" parent="4ImmQXMUIyr4NcNMXB_i-10" vertex="1">
          <mxGeometry x="52" y="30" width="30" height="30" as="geometry" />
        </mxCell>
        <mxCell id="4ImmQXMUIyr4NcNMXB_i-12" value="" style="edgeStyle=orthogonalEdgeStyle;html=1;verticalAlign=bottom;endArrow=open;endSize=8;strokeColor=#ff0000;rounded=0;entryX=0.52;entryY=-0.075;entryDx=0;entryDy=0;entryPerimeter=0;" parent="4ImmQXMUIyr4NcNMXB_i-10" source="4ImmQXMUIyr4NcNMXB_i-11" target="4ImmQXMUIyr4NcNMXB_i-16" edge="1">
          <mxGeometry relative="1" as="geometry">
            <mxPoint x="60" y="120" as="targetPoint" />
          </mxGeometry>
        </mxCell>
        <mxCell id="4ImmQXMUIyr4NcNMXB_i-13" value="&lt;font style=&quot;vertical-align: inherit; font-size: 10px;&quot;&gt;&lt;font style=&quot;vertical-align: inherit; font-size: 10px;&quot;&gt;&lt;font style=&quot;vertical-align: inherit; font-size: 10px;&quot;&gt;&lt;font style=&quot;vertical-align: inherit; font-size: 10px;&quot;&gt;Solicita agendar uma consulta para o seu animal&lt;/font&gt;&lt;/font&gt;&lt;/font&gt;&lt;/font&gt;" style="html=1;whiteSpace=wrap;fontSize=10;" parent="4ImmQXMUIyr4NcNMXB_i-10" vertex="1">
          <mxGeometry x="10" y="280" width="100" height="40" as="geometry" />
        </mxCell>
        <mxCell id="4ImmQXMUIyr4NcNMXB_i-14" value="" style="ellipse;html=1;shape=endState;fillColor=#000000;strokeColor=#ff0000;" parent="4ImmQXMUIyr4NcNMXB_i-10" vertex="1">
          <mxGeometry x="12" y="429" width="30" height="30" as="geometry" />
        </mxCell>
        <mxCell id="4ImmQXMUIyr4NcNMXB_i-15" value="&lt;font style=&quot;vertical-align: inherit;&quot;&gt;&lt;font style=&quot;vertical-align: inherit;&quot;&gt;Cliente tem os dados&lt;/font&gt;&lt;/font&gt;" style="rhombus;whiteSpace=wrap;html=1;fontSize=9;" parent="4ImmQXMUIyr4NcNMXB_i-10" vertex="1">
          <mxGeometry x="92" y="590" width="89" height="100" as="geometry" />
        </mxCell>
        <mxCell id="4ImmQXMUIyr4NcNMXB_i-16" value="&lt;font style=&quot;vertical-align: inherit;&quot;&gt;&lt;font style=&quot;vertical-align: inherit;&quot;&gt;Cliente entra na petshop&lt;/font&gt;&lt;/font&gt;" style="html=1;whiteSpace=wrap;" parent="4ImmQXMUIyr4NcNMXB_i-10" vertex="1">
          <mxGeometry x="20" y="120" width="90" height="40" as="geometry" />
        </mxCell>
        <mxCell id="4ImmQXMUIyr4NcNMXB_i-17" value="&lt;font style=&quot;vertical-align: inherit;&quot;&gt;&lt;font style=&quot;vertical-align: inherit;&quot;&gt;Já é cadastrado&lt;/font&gt;&lt;/font&gt;" style="rhombus;whiteSpace=wrap;html=1;fontSize=9;" parent="4ImmQXMUIyr4NcNMXB_i-10" vertex="1">
          <mxGeometry x="11" y="470" width="89" height="100" as="geometry" />
        </mxCell>
        <mxCell id="4ImmQXMUIyr4NcNMXB_i-18" value="ATENDENTE" style="swimlane;startSize=20;" parent="4ImmQXMUIyr4NcNMXB_i-9" vertex="1">
          <mxGeometry x="240" width="230" height="1240" as="geometry" />
        </mxCell>
        <mxCell id="4ImmQXMUIyr4NcNMXB_i-19" value="&lt;font style=&quot;vertical-align: inherit;&quot;&gt;&lt;font style=&quot;vertical-align: inherit;&quot;&gt;&lt;font style=&quot;vertical-align: inherit;&quot;&gt;&lt;font style=&quot;vertical-align: inherit;&quot;&gt;Cumprimenta e pergunta o que deseja&lt;/font&gt;&lt;/font&gt;&lt;/font&gt;&lt;/font&gt;" style="html=1;whiteSpace=wrap;" parent="4ImmQXMUIyr4NcNMXB_i-18" vertex="1">
          <mxGeometry x="53" y="120" width="95" height="40" as="geometry" />
        </mxCell>
        <mxCell id="4ImmQXMUIyr4NcNMXB_i-20" value="&lt;font style=&quot;vertical-align: inherit; font-size: 9px;&quot;&gt;&lt;font style=&quot;vertical-align: inherit; font-size: 9px;&quot;&gt;&lt;font style=&quot;vertical-align: inherit; font-size: 9px;&quot;&gt;&lt;font style=&quot;vertical-align: inherit; font-size: 9px;&quot;&gt;acessa o sistema e informa os dias diponiveis e horário&lt;/font&gt;&lt;/font&gt;&lt;/font&gt;&lt;/font&gt;" style="html=1;whiteSpace=wrap;fontSize=9;" parent="4ImmQXMUIyr4NcNMXB_i-18" vertex="1">
          <mxGeometry x="49" y="280" width="90" height="40" as="geometry" />
        </mxCell>
        <mxCell id="4ImmQXMUIyr4NcNMXB_i-21" value="&lt;font style=&quot;vertical-align: inherit;&quot;&gt;&lt;font style=&quot;vertical-align: inherit;&quot;&gt;Preenche o cadastro do cliente&lt;/font&gt;&lt;/font&gt;" style="html=1;whiteSpace=wrap;" parent="4ImmQXMUIyr4NcNMXB_i-18" vertex="1">
          <mxGeometry x="85" y="620" width="90" height="40" as="geometry" />
        </mxCell>
        <mxCell id="4ImmQXMUIyr4NcNMXB_i-22" style="edgeStyle=orthogonalEdgeStyle;rounded=0;orthogonalLoop=1;jettySize=auto;html=1;exitX=0.5;exitY=1;exitDx=0;exitDy=0;entryX=0.5;entryY=0;entryDx=0;entryDy=0;" parent="4ImmQXMUIyr4NcNMXB_i-18" source="4ImmQXMUIyr4NcNMXB_i-23" target="4ImmQXMUIyr4NcNMXB_i-24" edge="1">
          <mxGeometry relative="1" as="geometry" />
        </mxCell>
        <mxCell id="4ImmQXMUIyr4NcNMXB_i-23" value="Informa que não será possível agendar sem os dados mínimos do cliente" style="html=1;whiteSpace=wrap;fontSize=8;" parent="4ImmQXMUIyr4NcNMXB_i-18" vertex="1">
          <mxGeometry x="15" y="690" width="90" height="40" as="geometry" />
        </mxCell>
        <mxCell id="4ImmQXMUIyr4NcNMXB_i-24" value="" style="ellipse;html=1;shape=endState;fillColor=#000000;strokeColor=#ff0000;" parent="4ImmQXMUIyr4NcNMXB_i-18" vertex="1">
          <mxGeometry x="45" y="750" width="30" height="30" as="geometry" />
        </mxCell>
        <mxCell id="4ImmQXMUIyr4NcNMXB_i-25" style="edgeStyle=orthogonalEdgeStyle;rounded=0;orthogonalLoop=1;jettySize=auto;html=1;entryX=0;entryY=0.5;entryDx=0;entryDy=0;" parent="4ImmQXMUIyr4NcNMXB_i-18" source="4ImmQXMUIyr4NcNMXB_i-27" target="4ImmQXMUIyr4NcNMXB_i-28" edge="1">
          <mxGeometry relative="1" as="geometry" />
        </mxCell>
        <mxCell id="4ImmQXMUIyr4NcNMXB_i-26" value="SIM" style="edgeLabel;html=1;align=center;verticalAlign=middle;resizable=0;points=[];" parent="4ImmQXMUIyr4NcNMXB_i-25" vertex="1" connectable="0">
          <mxGeometry x="-0.7143" y="-1" relative="1" as="geometry">
            <mxPoint as="offset" />
          </mxGeometry>
        </mxCell>
        <mxCell id="4ImmQXMUIyr4NcNMXB_i-27" value="Tem os dado mínimos&amp;nbsp;" style="rhombus;whiteSpace=wrap;html=1;fontSize=9;" parent="4ImmQXMUIyr4NcNMXB_i-18" vertex="1">
          <mxGeometry x="-134" y="934" width="89" height="76" as="geometry" />
        </mxCell>
        <mxCell id="4ImmQXMUIyr4NcNMXB_i-28" value="Preenche o cadastro do animal e completa na consulta" style="html=1;whiteSpace=wrap;fontSize=11;" parent="4ImmQXMUIyr4NcNMXB_i-18" vertex="1">
          <mxGeometry x="93" y="958.5" width="120" height="51" as="geometry" />
        </mxCell>
        <mxCell id="4ImmQXMUIyr4NcNMXB_i-29" value="" style="ellipse;html=1;shape=endState;fillColor=#000000;strokeColor=#ff0000;" parent="4ImmQXMUIyr4NcNMXB_i-18" vertex="1">
          <mxGeometry x="138" y="1202" width="30" height="30" as="geometry" />
        </mxCell>
        <mxCell id="4ImmQXMUIyr4NcNMXB_i-30" value="&lt;font style=&quot;vertical-align: inherit;&quot;&gt;&lt;font style=&quot;vertical-align: inherit;&quot;&gt;&lt;font style=&quot;vertical-align: inherit;&quot;&gt;&lt;font style=&quot;vertical-align: inherit;&quot;&gt;Solicitar dados para cadastro do cliente&lt;/font&gt;&lt;/font&gt;&lt;/font&gt;&lt;/font&gt;" style="html=1;whiteSpace=wrap;" parent="4ImmQXMUIyr4NcNMXB_i-18" vertex="1">
          <mxGeometry x="33.5" y="508" width="121" height="50" as="geometry" />
        </mxCell>
        <mxCell id="4ImmQXMUIyr4NcNMXB_i-31" value="" style="ellipse;html=1;shape=endState;fillColor=#000000;strokeColor=#ff0000;" parent="4ImmQXMUIyr4NcNMXB_i-18" vertex="1">
          <mxGeometry x="33.5" y="1100" width="30" height="30" as="geometry" />
        </mxCell>
        <mxCell id="4ImmQXMUIyr4NcNMXB_i-32" value="PROFISSIONAL" style="swimlane;startSize=20;" parent="4ImmQXMUIyr4NcNMXB_i-9" vertex="1">
          <mxGeometry x="470" width="180" height="1240" as="geometry" />
        </mxCell>
        <mxCell id="4ImmQXMUIyr4NcNMXB_i-33" style="edgeStyle=orthogonalEdgeStyle;rounded=0;orthogonalLoop=1;jettySize=auto;html=1;exitX=0.25;exitY=1;exitDx=0;exitDy=0;entryX=0.5;entryY=0;entryDx=0;entryDy=0;" parent="4ImmQXMUIyr4NcNMXB_i-9" source="4ImmQXMUIyr4NcNMXB_i-19" target="4ImmQXMUIyr4NcNMXB_i-13" edge="1">
          <mxGeometry relative="1" as="geometry" />
        </mxCell>
        <mxCell id="4ImmQXMUIyr4NcNMXB_i-34" style="edgeStyle=orthogonalEdgeStyle;rounded=0;orthogonalLoop=1;jettySize=auto;html=1;" parent="4ImmQXMUIyr4NcNMXB_i-9" source="4ImmQXMUIyr4NcNMXB_i-13" target="4ImmQXMUIyr4NcNMXB_i-20" edge="1">
          <mxGeometry relative="1" as="geometry" />
        </mxCell>
        <mxCell id="4ImmQXMUIyr4NcNMXB_i-35" style="edgeStyle=orthogonalEdgeStyle;rounded=0;orthogonalLoop=1;jettySize=auto;html=1;entryX=0.5;entryY=0;entryDx=0;entryDy=0;" parent="4ImmQXMUIyr4NcNMXB_i-9" target="4ImmQXMUIyr4NcNMXB_i-14" edge="1">
          <mxGeometry relative="1" as="geometry">
            <mxPoint x="100" y="420" as="sourcePoint" />
            <Array as="points">
              <mxPoint x="100" y="421" />
              <mxPoint x="80" y="421" />
              <mxPoint x="80" y="420" />
              <mxPoint x="47" y="420" />
            </Array>
          </mxGeometry>
        </mxCell>
        <mxCell id="4ImmQXMUIyr4NcNMXB_i-36" value="&lt;font style=&quot;vertical-align: inherit;&quot;&gt;&lt;font style=&quot;vertical-align: inherit;&quot;&gt;NÃO&lt;/font&gt;&lt;/font&gt;" style="edgeLabel;html=1;align=center;verticalAlign=middle;resizable=0;points=[];" parent="4ImmQXMUIyr4NcNMXB_i-35" vertex="1" connectable="0">
          <mxGeometry x="-0.3058" relative="1" as="geometry">
            <mxPoint as="offset" />
          </mxGeometry>
        </mxCell>
        <mxCell id="4ImmQXMUIyr4NcNMXB_i-37" style="edgeStyle=orthogonalEdgeStyle;rounded=0;orthogonalLoop=1;jettySize=auto;html=1;entryX=0;entryY=0.5;entryDx=0;entryDy=0;" parent="4ImmQXMUIyr4NcNMXB_i-9" source="4ImmQXMUIyr4NcNMXB_i-15" target="4ImmQXMUIyr4NcNMXB_i-21" edge="1">
          <mxGeometry relative="1" as="geometry" />
        </mxCell>
        <mxCell id="4ImmQXMUIyr4NcNMXB_i-38" value="&lt;font style=&quot;vertical-align: inherit;&quot;&gt;&lt;font style=&quot;vertical-align: inherit;&quot;&gt;SIM&lt;/font&gt;&lt;/font&gt;" style="edgeLabel;html=1;align=center;verticalAlign=middle;resizable=0;points=[];" parent="4ImmQXMUIyr4NcNMXB_i-37" vertex="1" connectable="0">
          <mxGeometry x="-0.7713" relative="1" as="geometry">
            <mxPoint as="offset" />
          </mxGeometry>
        </mxCell>
        <mxCell id="4ImmQXMUIyr4NcNMXB_i-39" style="edgeStyle=orthogonalEdgeStyle;rounded=0;orthogonalLoop=1;jettySize=auto;html=1;exitX=1;exitY=1;exitDx=0;exitDy=0;" parent="4ImmQXMUIyr4NcNMXB_i-9" source="4ImmQXMUIyr4NcNMXB_i-15" target="4ImmQXMUIyr4NcNMXB_i-23" edge="1">
          <mxGeometry relative="1" as="geometry" />
        </mxCell>
        <mxCell id="4ImmQXMUIyr4NcNMXB_i-40" value="NÃO" style="edgeLabel;html=1;align=center;verticalAlign=middle;resizable=0;points=[];" parent="4ImmQXMUIyr4NcNMXB_i-39" vertex="1" connectable="0">
          <mxGeometry x="-0.3583" y="-1" relative="1" as="geometry">
            <mxPoint as="offset" />
          </mxGeometry>
        </mxCell>
        <mxCell id="4ImmQXMUIyr4NcNMXB_i-41" style="edgeStyle=orthogonalEdgeStyle;rounded=0;orthogonalLoop=1;jettySize=auto;html=1;" parent="4ImmQXMUIyr4NcNMXB_i-9" source="4ImmQXMUIyr4NcNMXB_i-16" target="4ImmQXMUIyr4NcNMXB_i-19" edge="1">
          <mxGeometry relative="1" as="geometry" />
        </mxCell>
        <mxCell id="4ImmQXMUIyr4NcNMXB_i-42" style="edgeStyle=orthogonalEdgeStyle;rounded=0;orthogonalLoop=1;jettySize=auto;html=1;entryX=0;entryY=0.25;entryDx=0;entryDy=0;" parent="4ImmQXMUIyr4NcNMXB_i-9" source="4ImmQXMUIyr4NcNMXB_i-17" target="4ImmQXMUIyr4NcNMXB_i-30" edge="1">
          <mxGeometry relative="1" as="geometry" />
        </mxCell>
        <mxCell id="4ImmQXMUIyr4NcNMXB_i-43" value="NÃO" style="edgeLabel;html=1;align=center;verticalAlign=middle;resizable=0;points=[];" parent="4ImmQXMUIyr4NcNMXB_i-42" vertex="1" connectable="0">
          <mxGeometry x="-0.7263" relative="1" as="geometry">
            <mxPoint as="offset" />
          </mxGeometry>
        </mxCell>
        <mxCell id="4ImmQXMUIyr4NcNMXB_i-44" style="edgeStyle=orthogonalEdgeStyle;rounded=0;orthogonalLoop=1;jettySize=auto;html=1;exitX=0;exitY=1;exitDx=0;exitDy=0;" parent="4ImmQXMUIyr4NcNMXB_i-9" source="4ImmQXMUIyr4NcNMXB_i-30" target="4ImmQXMUIyr4NcNMXB_i-15" edge="1">
          <mxGeometry relative="1" as="geometry">
            <Array as="points">
              <mxPoint x="274" y="570" />
              <mxPoint x="157" y="570" />
            </Array>
          </mxGeometry>
        </mxCell>
        <mxCell id="4ImmQXMUIyr4NcNMXB_i-45" style="edgeStyle=orthogonalEdgeStyle;rounded=0;orthogonalLoop=1;jettySize=auto;html=1;exitX=0;exitY=1;exitDx=0;exitDy=0;entryX=1;entryY=0;entryDx=0;entryDy=0;" parent="1" source="4ImmQXMUIyr4NcNMXB_i-46" target="4ImmQXMUIyr4NcNMXB_i-17" edge="1">
          <mxGeometry relative="1" as="geometry">
            <Array as="points">
              <mxPoint x="350" y="965" />
            </Array>
          </mxGeometry>
        </mxCell>
        <mxCell id="4ImmQXMUIyr4NcNMXB_i-46" value="Perguntar se o cliente já é cadastrado" style="html=1;whiteSpace=wrap;" parent="1" vertex="1">
          <mxGeometry x="350" y="881" width="129" height="49" as="geometry" />
        </mxCell>
        <mxCell id="4ImmQXMUIyr4NcNMXB_i-47" style="edgeStyle=orthogonalEdgeStyle;rounded=0;orthogonalLoop=1;jettySize=auto;html=1;exitX=0;exitY=1;exitDx=0;exitDy=0;entryX=0.5;entryY=0;entryDx=0;entryDy=0;" parent="1" source="4ImmQXMUIyr4NcNMXB_i-48" target="4ImmQXMUIyr4NcNMXB_i-27" edge="1">
          <mxGeometry relative="1" as="geometry">
            <Array as="points">
              <mxPoint x="415" y="1384" />
              <mxPoint x="231" y="1384" />
            </Array>
          </mxGeometry>
        </mxCell>
        <mxCell id="4ImmQXMUIyr4NcNMXB_i-48" value="Solicita os dados do animal" style="html=1;whiteSpace=wrap;" parent="1" vertex="1">
          <mxGeometry x="415" y="1345" width="90" height="40" as="geometry" />
        </mxCell>
        <mxCell id="4ImmQXMUIyr4NcNMXB_i-49" style="edgeStyle=orthogonalEdgeStyle;rounded=0;orthogonalLoop=1;jettySize=auto;html=1;exitX=1;exitY=0.5;exitDx=0;exitDy=0;entryX=0;entryY=0.5;entryDx=0;entryDy=0;" parent="1" source="4ImmQXMUIyr4NcNMXB_i-56" target="4ImmQXMUIyr4NcNMXB_i-46" edge="1">
          <mxGeometry relative="1" as="geometry" />
        </mxCell>
        <mxCell id="4ImmQXMUIyr4NcNMXB_i-50" value="SIM" style="edgeLabel;html=1;align=center;verticalAlign=middle;resizable=0;points=[];" parent="4ImmQXMUIyr4NcNMXB_i-49" vertex="1" connectable="0">
          <mxGeometry x="-0.26" y="1" relative="1" as="geometry">
            <mxPoint as="offset" />
          </mxGeometry>
        </mxCell>
        <mxCell id="4ImmQXMUIyr4NcNMXB_i-51" style="edgeStyle=orthogonalEdgeStyle;rounded=0;orthogonalLoop=1;jettySize=auto;html=1;exitX=0.75;exitY=1;exitDx=0;exitDy=0;entryX=0.633;entryY=-0.05;entryDx=0;entryDy=0;entryPerimeter=0;" parent="1" source="4ImmQXMUIyr4NcNMXB_i-21" target="4ImmQXMUIyr4NcNMXB_i-48" edge="1">
          <mxGeometry relative="1" as="geometry" />
        </mxCell>
        <mxCell id="4ImmQXMUIyr4NcNMXB_i-52" style="edgeStyle=orthogonalEdgeStyle;rounded=0;orthogonalLoop=1;jettySize=auto;html=1;exitX=0.5;exitY=1;exitDx=0;exitDy=0;entryX=0.5;entryY=0;entryDx=0;entryDy=0;" parent="1" source="4ImmQXMUIyr4NcNMXB_i-53" target="4ImmQXMUIyr4NcNMXB_i-29" edge="1">
          <mxGeometry relative="1" as="geometry" />
        </mxCell>
        <mxCell id="4ImmQXMUIyr4NcNMXB_i-53" value="Agendar e Informa novamente o dia, horário e quem irá prestar a consulta e agradece a preferência" style="html=1;whiteSpace=wrap;fontSize=8;" parent="1" vertex="1">
          <mxGeometry x="413" y="1574.5" width="120" height="51" as="geometry" />
        </mxCell>
        <mxCell id="4ImmQXMUIyr4NcNMXB_i-54" style="edgeStyle=orthogonalEdgeStyle;rounded=0;orthogonalLoop=1;jettySize=auto;html=1;exitX=0.5;exitY=1;exitDx=0;exitDy=0;" parent="1" source="4ImmQXMUIyr4NcNMXB_i-28" target="4ImmQXMUIyr4NcNMXB_i-53" edge="1">
          <mxGeometry relative="1" as="geometry" />
        </mxCell>
        <mxCell id="4ImmQXMUIyr4NcNMXB_i-55" value="AGENDAMENTO DE CONSULTA" style="html=1;whiteSpace=wrap;" parent="1" vertex="1">
          <mxGeometry x="275" y="400" width="175" height="50" as="geometry" />
        </mxCell>
        <mxCell id="4ImmQXMUIyr4NcNMXB_i-56" value="&lt;font style=&quot;vertical-align: inherit;&quot;&gt;&lt;font style=&quot;vertical-align: inherit;&quot;&gt;Se o cliente deseja alguns dos horários disponíveis&lt;/font&gt;&lt;/font&gt;" style="rhombus;whiteSpace=wrap;html=1;fontSize=9;" parent="1" vertex="1">
          <mxGeometry x="170" y="818" width="89" height="100" as="geometry" />
        </mxCell>
        <mxCell id="4ImmQXMUIyr4NcNMXB_i-57" value="" style="edgeStyle=orthogonalEdgeStyle;rounded=0;orthogonalLoop=1;jettySize=auto;html=1;" parent="1" source="4ImmQXMUIyr4NcNMXB_i-20" target="4ImmQXMUIyr4NcNMXB_i-56" edge="1">
          <mxGeometry relative="1" as="geometry">
            <Array as="points">
              <mxPoint x="414" y="820" />
              <mxPoint x="226" y="820" />
            </Array>
          </mxGeometry>
        </mxCell>
        <mxCell id="4ImmQXMUIyr4NcNMXB_i-58" style="edgeStyle=orthogonalEdgeStyle;rounded=0;orthogonalLoop=1;jettySize=auto;html=1;exitX=0;exitY=1;exitDx=0;exitDy=0;entryX=1;entryY=0;entryDx=0;entryDy=0;" parent="1" source="4ImmQXMUIyr4NcNMXB_i-59" target="4ImmQXMUIyr4NcNMXB_i-66" edge="1">
          <mxGeometry relative="1" as="geometry">
            <Array as="points">
              <mxPoint x="347" y="1307" />
            </Array>
          </mxGeometry>
        </mxCell>
        <mxCell id="4ImmQXMUIyr4NcNMXB_i-59" value="Animal já é cadastrado" style="html=1;whiteSpace=wrap;" parent="1" vertex="1">
          <mxGeometry x="347" y="1254" width="90" height="40" as="geometry" />
        </mxCell>
        <mxCell id="4ImmQXMUIyr4NcNMXB_i-60" style="edgeStyle=orthogonalEdgeStyle;rounded=0;orthogonalLoop=1;jettySize=auto;html=1;entryX=0;entryY=0.25;entryDx=0;entryDy=0;" parent="1" source="4ImmQXMUIyr4NcNMXB_i-17" target="4ImmQXMUIyr4NcNMXB_i-59" edge="1">
          <mxGeometry relative="1" as="geometry">
            <Array as="points">
              <mxPoint x="156" y="1264" />
            </Array>
          </mxGeometry>
        </mxCell>
        <mxCell id="4ImmQXMUIyr4NcNMXB_i-61" value="SIM" style="edgeLabel;html=1;align=center;verticalAlign=middle;resizable=0;points=[];" parent="4ImmQXMUIyr4NcNMXB_i-60" vertex="1" connectable="0">
          <mxGeometry x="-0.832" relative="1" as="geometry">
            <mxPoint as="offset" />
          </mxGeometry>
        </mxCell>
        <mxCell id="4ImmQXMUIyr4NcNMXB_i-62" style="edgeStyle=orthogonalEdgeStyle;rounded=0;orthogonalLoop=1;jettySize=auto;html=1;entryX=0.011;entryY=0.163;entryDx=0;entryDy=0;entryPerimeter=0;" parent="1" source="4ImmQXMUIyr4NcNMXB_i-66" target="4ImmQXMUIyr4NcNMXB_i-48" edge="1">
          <mxGeometry relative="1" as="geometry" />
        </mxCell>
        <mxCell id="4ImmQXMUIyr4NcNMXB_i-63" value="NÃO" style="edgeLabel;html=1;align=center;verticalAlign=middle;resizable=0;points=[];" parent="4ImmQXMUIyr4NcNMXB_i-62" vertex="1" connectable="0">
          <mxGeometry x="-0.7827" y="1" relative="1" as="geometry">
            <mxPoint as="offset" />
          </mxGeometry>
        </mxCell>
        <mxCell id="4ImmQXMUIyr4NcNMXB_i-64" style="edgeStyle=orthogonalEdgeStyle;rounded=0;orthogonalLoop=1;jettySize=auto;html=1;exitX=0.5;exitY=1;exitDx=0;exitDy=0;entryX=0;entryY=0.75;entryDx=0;entryDy=0;" parent="1" source="4ImmQXMUIyr4NcNMXB_i-66" target="4ImmQXMUIyr4NcNMXB_i-53" edge="1">
          <mxGeometry relative="1" as="geometry" />
        </mxCell>
        <mxCell id="4ImmQXMUIyr4NcNMXB_i-65" value="SIM" style="edgeLabel;html=1;align=center;verticalAlign=middle;resizable=0;points=[];" parent="4ImmQXMUIyr4NcNMXB_i-64" vertex="1" connectable="0">
          <mxGeometry x="-0.8698" y="-1" relative="1" as="geometry">
            <mxPoint as="offset" />
          </mxGeometry>
        </mxCell>
        <mxCell id="4ImmQXMUIyr4NcNMXB_i-66" value="&lt;font style=&quot;vertical-align: inherit;&quot;&gt;&lt;font style=&quot;vertical-align: inherit;&quot;&gt;Já é cadastrado&lt;/font&gt;&lt;/font&gt;" style="rhombus;whiteSpace=wrap;html=1;fontSize=9;" parent="1" vertex="1">
          <mxGeometry x="121" y="1282" width="89" height="100" as="geometry" />
        </mxCell>
        <mxCell id="4ImmQXMUIyr4NcNMXB_i-67" style="edgeStyle=orthogonalEdgeStyle;rounded=0;orthogonalLoop=1;jettySize=auto;html=1;entryX=0.5;entryY=0;entryDx=0;entryDy=0;exitX=0.25;exitY=1;exitDx=0;exitDy=0;" parent="1" source="4ImmQXMUIyr4NcNMXB_i-68" target="4ImmQXMUIyr4NcNMXB_i-31" edge="1">
          <mxGeometry relative="1" as="geometry" />
        </mxCell>
        <mxCell id="4ImmQXMUIyr4NcNMXB_i-68" value="Informa que não será possível agendar sem os dados mínimos do ANIMAL" style="html=1;whiteSpace=wrap;fontSize=8;" parent="1" vertex="1">
          <mxGeometry x="349" y="1501" width="90" height="39" as="geometry" />
        </mxCell>
        <mxCell id="4ImmQXMUIyr4NcNMXB_i-69" style="edgeStyle=orthogonalEdgeStyle;rounded=0;orthogonalLoop=1;jettySize=auto;html=1;exitX=0.509;exitY=1.074;exitDx=0;exitDy=0;entryX=0;entryY=0;entryDx=0;entryDy=0;exitPerimeter=0;" parent="1" source="4ImmQXMUIyr4NcNMXB_i-27" target="4ImmQXMUIyr4NcNMXB_i-68" edge="1">
          <mxGeometry relative="1" as="geometry">
            <mxPoint x="230.5" y="1436.9999999999998" as="sourcePoint" />
            <mxPoint x="233.27999999999997" y="1545.31" as="targetPoint" />
            <Array as="points">
              <mxPoint x="231" y="1500" />
              <mxPoint x="265" y="1500" />
              <mxPoint x="265" y="1501" />
            </Array>
          </mxGeometry>
        </mxCell>
        <mxCell id="4ImmQXMUIyr4NcNMXB_i-70" value="NÃO" style="edgeLabel;html=1;align=center;verticalAlign=middle;resizable=0;points=[];" parent="4ImmQXMUIyr4NcNMXB_i-69" vertex="1" connectable="0">
          <mxGeometry x="-0.3913" relative="1" as="geometry">
            <mxPoint as="offset" />
          </mxGeometry>
        </mxCell>
      </root>
    </mxGraphModel>
  </diagram>
</mxfile>
